<svg xmlns="http://www.w3.org/2000/svg" xmlns:xlink="http://www.w3.org/1999/xlink" width="500" zoomAndPan="magnify" viewBox="0 0 375 374.999991" height="500" preserveAspectRatio="xMidYMid meet" version="1.0"><defs><g/><clipPath id="4059b7973d"><path d="M 83 184 L 248 184 L 248 249 L 83 249 Z M 83 184 " clip-rule="nonzero"/></clipPath><clipPath id="a5500e517d"><path d="M 84.980469 173.632812 L 256 203.386719 L 245.828125 261.859375 L 74.808594 232.105469 Z M 84.980469 173.632812 " clip-rule="nonzero"/></clipPath><clipPath id="adfb044e16"><path d="M 84.980469 173.632812 L 256 203.386719 L 245.828125 261.859375 L 74.808594 232.105469 Z M 84.980469 173.632812 " clip-rule="nonzero"/></clipPath></defs><g fill="#ba9043" fill-opacity="1"><g transform="translate(143.312777, 230.854809)"><g><path d="M 9.882812 -125.1875 C 9.882812 -71.160156 115.964844 -85.160156 115.964844 -35.582031 C 115.964844 -17.296875 97.023438 0.328125 72.972656 0.328125 C 33.769531 0.328125 12.191406 -38.875 12.191406 -38.875 L 10.542969 -38.875 L 10.542969 -16.800781 C 22.730469 -7.742188 42.003906 3.292969 63.746094 3.292969 C 101.796875 3.292969 125.519531 -19.4375 125.519531 -42.332031 C 125.519531 -99.988281 21.414062 -84.007812 21.414062 -129.140625 C 21.414062 -147.425781 38.214844 -166.039062 68.855469 -166.039062 C 104.105469 -166.039062 114.152344 -138.367188 114.152344 -138.367188 L 115.800781 -138.367188 L 115.800781 -160.441406 C 103.117188 -164.722656 89.113281 -168.015625 68.855469 -168.015625 C 30.804688 -168.015625 9.882812 -148.085938 9.882812 -125.1875 Z M 9.882812 -125.1875 "/></g></g></g><g clip-path="url(#4059b7973d)"><g clip-path="url(#a5500e517d)"><g clip-path="url(#adfb044e16)"><path fill="#d4b05f" d="M 185.125 224.414062 C 179.332031 221.050781 174.519531 216.566406 170.136719 211.605469 C 168.90625 212.351562 165.726562 215.632812 165.3125 216.582031 C 171.308594 221.417969 177.019531 226.621094 183.285156 231.238281 C 184.300781 229.046875 184.988281 226.816406 185.125 224.414062 Z M 164.660156 217.429688 C 163.605469 218.792969 162.164062 221.628906 161.53125 224.21875 C 158.917969 234.894531 167.957031 242.566406 176.25 238.617188 C 179.574219 237.035156 182.136719 233.871094 182.800781 232.121094 C 176.527344 227.511719 170.746094 222.304688 164.660156 217.429688 Z M 169.421875 210.804688 C 158.320312 197.546875 155.707031 194.402344 150.820312 190.996094 C 139.503906 183.121094 126.722656 185.984375 120.367188 190.441406 C 134.402344 195.203125 143.746094 199.140625 164.0625 215.574219 C 165.105469 216.417969 163.734375 215.328125 169.421875 210.804688 Z M 177.808594 213.6875 C 177.925781 212.625 183.507812 213.90625 185.054688 219.464844 C 185.441406 220.851562 185.730469 222.546875 185.746094 222.558594 C 188.277344 224.339844 193.070312 226.683594 197.578125 227.855469 C 212.644531 231.777344 222.964844 220.96875 217.953125 212.640625 C 212.28125 203.222656 191.667969 197.472656 172.339844 209.949219 C 172.226562 210.019531 172.085938 210.054688 171.964844 210.101562 C 173.390625 212.519531 183.117188 221.363281 185.019531 222.007812 C 184.96875 221.480469 184.457031 219.515625 184.097656 218.671875 C 182.921875 215.917969 180.867188 214.207031 177.808594 213.6875 Z M 163.628906 217.097656 C 163.8125 216.8125 163.890625 216.804688 163.625 216.59375 C 155.183594 209.808594 143.59375 200.324219 126.09375 193.488281 C 124.132812 192.722656 120.460938 191.507812 119.234375 191.292969 C 118.28125 191.710938 114.914062 194.976562 113.457031 198.566406 C 111.492188 203.398438 113.804688 205.535156 113.367188 205.785156 C 110.433594 201.753906 112.984375 195.511719 117.351562 191.265625 C 117.660156 190.96875 117.753906 190.921875 117.453125 190.855469 C 106.824219 188.550781 97.25 190.765625 91.878906 194.21875 C 80.105469 201.785156 85 212.78125 84.863281 212.851562 C 81.753906 207.574219 83.328125 195.242188 97.683594 190.613281 C 109.1875 186.90625 118.339844 190.335938 118.835938 189.941406 C 126.179688 184.078125 136.753906 182.683594 144.953125 185.46875 C 159.519531 190.414062 169.941406 210.289062 171.660156 209.199219 C 190.960938 196.9375 212.230469 202.339844 218.363281 211.679688 C 225.375 222.359375 209.855469 237.683594 186.296875 225.066406 C 185.328125 224.546875 186.070312 224.488281 184.972656 228.222656 C 184.183594 230.90625 183.578125 231.460938 183.859375 231.667969 C 192.488281 237.964844 200.839844 243.328125 211.261719 245.902344 C 220.585938 248.203125 230.296875 247.894531 238.207031 242.671875 C 244.441406 238.554688 247.035156 231.460938 246.625 228.066406 C 246.46875 226.773438 245.898438 226.148438 245.871094 225.808594 C 251.335938 230.066406 240.375 255.101562 208.980469 246.164062 C 197.636719 242.933594 189.828125 237 183.65625 232.757812 C 183.171875 232.425781 183.300781 232.339844 182.984375 232.882812 C 173.558594 249.289062 151.460938 235.875 163.628906 217.097656 " fill-opacity="1" fill-rule="nonzero"/></g></g></g></svg>